<svg width="53" height="38" viewBox="0 0 53 38" fill="none" xmlns="http://www.w3.org/2000/svg">
<path d="M0.897827 37.4224L17.5981 0.299377H38.5398C41.0284 0.567243 42.8753 1.35508 44.0962 2.6629C45.3326 3.97071 45.99 5.71972 46.0526 7.90991C45.5831 11.2031 44.7848 13.7399 43.6423 15.5204C42.484 17.301 40.9815 18.7979 39.1503 19.9954C37.3034 21.1929 34.893 22.1383 31.9349 22.8316L33.2966 26.3769H52.235L49.0734 37.4382H25.8777L19.1632 25.1794L14.2017 37.4382H0.897827V37.4224ZM25.4864 9.54862L22.7161 16.4028H31.3245C31.7784 16.4028 32.3418 16.2137 33.0148 15.8513C33.6879 15.4889 34.3139 14.5593 34.8774 13.0624C35.3156 11.6443 35.3469 10.6989 34.9713 10.2419C34.5957 9.78497 34.22 9.56438 33.8444 9.56438H25.4864V9.54862Z" fill="#1BA1BE"/>
</svg>
