<svg width="42" height="39" viewBox="0 0 42 39" fill="none" xmlns="http://www.w3.org/2000/svg">
<path d="M41.0648 19.0657C40.4231 23.131 39.0771 26.5975 36.9798 29.4495C34.8512 32.3172 32.0808 34.4601 28.6531 35.9098C25.1941 37.3436 21.2343 38.0684 16.8049 38.0684C12.3755 38.0684 8.76 37.3436 5.98968 35.894C3.235 34.4444 1.48202 32.3015 0.699438 29.4652C-0.0361853 26.629 0.214247 23.1625 1.45072 19.0657C2.38982 15.9616 3.62628 13.2357 5.19144 10.8722C6.72529 8.50867 8.54088 6.52332 10.6069 4.91612C12.6572 3.30893 14.9267 2.0799 17.4466 1.24479C19.9509 0.409677 22.6429 0 25.5385 0C29.3731 0 32.5504 0.74057 35.0703 2.20595C37.6215 3.67134 39.4058 5.83002 40.4388 8.682C41.4718 11.5497 41.6909 15.0005 41.0648 19.0657ZM13.6746 19.176C13.0642 21.5553 13.0329 23.6352 13.612 25.4C14.1911 27.1647 16.0067 28.0471 19.0274 28.0471C21.3595 28.0471 23.2064 27.5902 24.5681 26.6605C25.9141 25.7309 26.8532 24.6752 27.3697 23.4776C27.8862 22.2801 28.3714 20.8463 28.8097 19.176C29.201 16.7968 29.0914 14.7169 28.4966 12.9363C27.9175 11.1558 26.1176 10.2734 23.0968 10.2734C18.3231 10.2734 15.1928 13.2357 13.6746 19.176Z" fill="#1BA1BE"/>
</svg>
