<svg width="56" height="38" viewBox="0 0 56 38" fill="none" xmlns="http://www.w3.org/2000/svg">
<path d="M21.8378 37.4224L11.4608 11.3607H4.49589L0.379517 0.299377H26.0481C28.6149 0.299377 31.0723 0.693298 33.4356 1.48114C35.799 2.26898 38.0215 3.32468 40.0719 4.66401C42.1379 6.00334 44.2509 7.81537 46.3795 10.0844C48.5237 12.3691 50.5898 15.3314 52.5462 18.9869C54.174 22.3589 55.1757 25.2424 55.5356 27.6059C55.88 29.9694 55.6452 31.8445 54.8313 33.2153C54.0018 34.5862 52.6714 35.6419 50.8245 36.3982C48.962 37.1545 46.3325 37.5012 42.9361 37.4224H21.8378ZM21.8535 9.50135L30.0549 28.1732H36.8477C38.3815 28.1732 39.4458 27.8423 40.0719 27.1647C40.6823 26.4872 41.0266 25.6206 41.1049 24.5649C41.1832 23.5092 40.6197 21.6183 39.4458 18.8766C38.178 16.3713 36.9572 14.5278 35.799 13.3303C34.6408 12.1327 33.4356 11.2031 32.1992 10.5255C30.9627 9.848 29.6166 9.51711 28.161 9.51711H21.8535V9.50135Z" fill="#1BA1BE"/>
</svg>
