<svg width="289" height="19" viewBox="0 0 289 19" fill="none" xmlns="http://www.w3.org/2000/svg">
<path d="M10.8135 18.7942C10.642 18.7942 10.5219 18.717 10.4533 18.5627L7.23763 11.4367C7.20332 11.3681 7.15187 11.3337 7.08327 11.3337H4.69078C4.60502 11.3337 4.56215 11.3766 4.56215 11.4624V18.4855C4.56215 18.5713 4.52785 18.6484 4.45924 18.717C4.40779 18.7685 4.33919 18.7942 4.25344 18.7942H1.24352C1.15777 18.7942 1.08059 18.7685 1.01199 18.717C0.96054 18.6484 0.934814 18.5713 0.934814 18.4855V1.0949C0.934814 1.00915 0.96054 0.940543 1.01199 0.889091C1.08059 0.820489 1.15777 0.786188 1.24352 0.786188H8.60109C9.69872 0.786188 10.6592 1.00915 11.4824 1.45506C12.3228 1.90097 12.9659 2.53554 13.4118 3.35876C13.8749 4.18199 14.1064 5.13384 14.1064 6.21432C14.1064 7.38056 13.8148 8.38386 13.2317 9.22424C12.6486 10.0475 11.834 10.6306 10.7878 10.9736C10.702 11.0079 10.6763 11.0679 10.7106 11.1537L14.2093 18.4341C14.2436 18.5027 14.2608 18.5541 14.2608 18.5884C14.2608 18.7256 14.1664 18.7942 13.9778 18.7942H10.8135ZM4.69078 3.899C4.60502 3.899 4.56215 3.94188 4.56215 4.02763V8.42674C4.56215 8.51249 4.60502 8.55537 4.69078 8.55537H8.06085C8.78117 8.55537 9.36429 8.34099 9.8102 7.91222C10.2733 7.48346 10.5048 6.92607 10.5048 6.24005C10.5048 5.55403 10.2733 4.99664 9.8102 4.56787C9.36429 4.12196 8.78117 3.899 8.06085 3.899H4.69078Z" fill="#1BA1BE"/>
<path d="M33.0986 3.5903C33.0986 3.67605 33.0643 3.75323 32.9957 3.82183C32.9443 3.87328 32.8757 3.899 32.7899 3.899H24.3519C24.2661 3.899 24.2233 3.94188 24.2233 4.02763V8.01513C24.2233 8.10088 24.2661 8.14376 24.3519 8.14376H29.8829C29.9687 8.14376 30.0373 8.17806 30.0887 8.24666C30.1573 8.29811 30.1916 8.36671 30.1916 8.45246V10.9479C30.1916 11.0336 30.1573 11.1108 30.0887 11.1794C30.0373 11.2308 29.9687 11.2566 29.8829 11.2566H24.3519C24.2661 11.2566 24.2233 11.2994 24.2233 11.3852V15.5528C24.2233 15.6385 24.2661 15.6814 24.3519 15.6814H32.7899C32.8757 15.6814 32.9443 15.7157 32.9957 15.7843C33.0643 15.8358 33.0986 15.9044 33.0986 15.9901V18.4855C33.0986 18.5713 33.0643 18.6484 32.9957 18.717C32.9443 18.7685 32.8757 18.7942 32.7899 18.7942H20.9046C20.8189 18.7942 20.7417 18.7685 20.6731 18.717C20.6217 18.6484 20.5959 18.5713 20.5959 18.4855V1.0949C20.5959 1.00915 20.6217 0.940543 20.6731 0.889091C20.7417 0.820489 20.8189 0.786188 20.9046 0.786188H32.7899C32.8757 0.786188 32.9443 0.820489 32.9957 0.889091C33.0643 0.940543 33.0986 1.00915 33.0986 1.0949V3.5903Z" fill="#1BA1BE"/>
<path d="M45.8068 19C44.469 19 43.2942 18.7428 42.2823 18.2283C41.2705 17.6966 40.4901 16.9591 39.9413 16.0158C39.3925 15.0726 39.1181 13.9835 39.1181 12.7487V6.80602C39.1181 5.57118 39.3925 4.48212 39.9413 3.53884C40.4901 2.59557 41.2705 1.86667 42.2823 1.35216C43.2942 0.837641 44.469 0.580383 45.8068 0.580383C47.1274 0.580383 48.285 0.829065 49.2797 1.32643C50.2916 1.80664 51.072 2.50124 51.6208 3.41022C52.1868 4.30204 52.4697 5.33965 52.4697 6.52303C52.4697 6.67739 52.3668 6.77172 52.161 6.80602L49.1511 6.9861H49.0997C48.9282 6.9861 48.8424 6.89177 48.8424 6.70311C48.8424 5.79414 48.5594 5.06524 47.9935 4.51642C47.4446 3.96761 46.7157 3.6932 45.8068 3.6932C44.8806 3.6932 44.1346 3.96761 43.5686 4.51642C43.0198 5.06524 42.7454 5.79414 42.7454 6.70311V12.903C42.7454 13.7948 43.0198 14.5152 43.5686 15.064C44.1346 15.6128 44.8806 15.8872 45.8068 15.8872C46.7157 15.8872 47.4446 15.6128 47.9935 15.064C48.5594 14.5152 48.8424 13.7948 48.8424 12.903C48.8424 12.7144 48.9453 12.62 49.1511 12.62L52.161 12.7487C52.2468 12.7487 52.3154 12.7744 52.3668 12.8258C52.4354 12.8773 52.4697 12.9373 52.4697 13.0059C52.4697 14.1893 52.1868 15.2355 51.6208 16.1445C51.072 17.0534 50.2916 17.7566 49.2797 18.254C48.285 18.7513 47.1274 19 45.8068 19Z" fill="#1BA1BE"/>
<path d="M68.8673 18.7942C68.6958 18.7942 68.5757 18.717 68.5071 18.5627L65.2914 11.4367C65.2571 11.3681 65.2057 11.3337 65.1371 11.3337H62.7446C62.6588 11.3337 62.6159 11.3766 62.6159 11.4624V18.4855C62.6159 18.5713 62.5816 18.6484 62.513 18.717C62.4616 18.7685 62.393 18.7942 62.3072 18.7942H59.2973C59.2116 18.7942 59.1344 18.7685 59.0658 18.717C59.0143 18.6484 58.9886 18.5713 58.9886 18.4855V1.0949C58.9886 1.00915 59.0143 0.940543 59.0658 0.889091C59.1344 0.820489 59.2116 0.786188 59.2973 0.786188H66.6549C67.7525 0.786188 68.7129 1.00915 69.5362 1.45506C70.3765 1.90097 71.0197 2.53554 71.4656 3.35876C71.9287 4.18199 72.1602 5.13384 72.1602 6.21432C72.1602 7.38056 71.8686 8.38386 71.2855 9.22424C70.7024 10.0475 69.8877 10.6306 68.8416 10.9736C68.7558 11.0079 68.7301 11.0679 68.7644 11.1537L72.2631 18.4341C72.2974 18.5027 72.3146 18.5541 72.3146 18.5884C72.3146 18.7256 72.2202 18.7942 72.0316 18.7942H68.8673ZM62.7446 3.899C62.6588 3.899 62.6159 3.94188 62.6159 4.02763V8.42674C62.6159 8.51249 62.6588 8.55537 62.7446 8.55537H66.1146C66.835 8.55537 67.4181 8.34099 67.864 7.91222C68.3271 7.48346 68.5586 6.92607 68.5586 6.24005C68.5586 5.55403 68.3271 4.99664 67.864 4.56787C67.4181 4.12196 66.835 3.899 66.1146 3.899H62.7446Z" fill="#1BA1BE"/>
<path d="M85.1841 19C83.8635 19 82.6972 18.7428 81.6854 18.2283C80.6906 17.7137 79.9103 16.9934 79.3443 16.0673C78.7955 15.124 78.5211 14.0435 78.5211 12.8258V1.0949C78.5211 1.00915 78.5468 0.940543 78.5983 0.889091C78.6669 0.820489 78.744 0.786188 78.8298 0.786188H81.8397C81.9255 0.786188 81.9941 0.820489 82.0455 0.889091C82.1141 0.940543 82.1484 1.00915 82.1484 1.0949V12.8516C82.1484 13.7605 82.4228 14.498 82.9716 15.064C83.5376 15.6128 84.2751 15.8872 85.1841 15.8872C86.093 15.8872 86.8219 15.6128 87.3708 15.064C87.9367 14.498 88.2197 13.7605 88.2197 12.8516V1.0949C88.2197 1.00915 88.2454 0.940543 88.2969 0.889091C88.3655 0.820489 88.4427 0.786188 88.5284 0.786188H91.5383C91.6241 0.786188 91.6927 0.820489 91.7441 0.889091C91.8127 0.940543 91.847 1.00915 91.847 1.0949V12.8258C91.847 14.0435 91.564 15.124 90.9981 16.0673C90.4493 16.9934 89.6689 17.7137 88.657 18.2283C87.6623 18.7428 86.5046 19 85.1841 19Z" fill="#1BA1BE"/>
<path d="M98.9964 18.7942C98.9106 18.7942 98.8335 18.7685 98.7649 18.717C98.7134 18.6484 98.6877 18.5713 98.6877 18.4855V1.0949C98.6877 1.00915 98.7134 0.940543 98.7649 0.889091C98.8335 0.820489 98.9106 0.786188 98.9964 0.786188H102.006C102.092 0.786188 102.161 0.820489 102.212 0.889091C102.281 0.940543 102.315 1.00915 102.315 1.0949V18.4855C102.315 18.5713 102.281 18.6484 102.212 18.717C102.161 18.7685 102.092 18.7942 102.006 18.7942H98.9964Z" fill="#1BA1BE"/>
<path d="M121.73 0.786188C121.816 0.786188 121.884 0.820489 121.936 0.889091C122.005 0.940543 122.039 1.00915 122.039 1.0949V3.61602C122.039 3.70177 122.005 3.77895 121.936 3.84755C121.884 3.89901 121.816 3.92473 121.73 3.92473H117.125C117.039 3.92473 116.997 3.96761 116.997 4.05336V18.4855C116.997 18.5713 116.962 18.6484 116.894 18.717C116.842 18.7685 116.774 18.7942 116.688 18.7942H113.678C113.592 18.7942 113.515 18.7685 113.446 18.717C113.395 18.6484 113.369 18.5713 113.369 18.4855V4.05336C113.369 3.96761 113.326 3.92473 113.241 3.92473H108.764C108.679 3.92473 108.601 3.89901 108.533 3.84755C108.481 3.77895 108.456 3.70177 108.456 3.61602V1.0949C108.456 1.00915 108.481 0.940543 108.533 0.889091C108.601 0.820489 108.679 0.786188 108.764 0.786188H121.73Z" fill="#1BA1BE"/>
<path d="M139.789 0.991995C139.874 0.85479 139.994 0.786188 140.149 0.786188H143.159C143.244 0.786188 143.313 0.820489 143.364 0.889091C143.433 0.940543 143.467 1.00915 143.467 1.0949V18.4855C143.467 18.5713 143.433 18.6484 143.364 18.717C143.313 18.7685 143.244 18.7942 143.159 18.7942H140.149C140.063 18.7942 139.986 18.7685 139.917 18.717C139.866 18.6484 139.84 18.5713 139.84 18.4855V7.14045C139.84 7.07185 139.823 7.03755 139.789 7.03755C139.754 7.03755 139.72 7.06327 139.686 7.11473L136.959 11.3852C136.873 11.5224 136.753 11.591 136.599 11.591H135.081C134.926 11.591 134.806 11.5224 134.721 11.3852L131.994 7.11473C131.959 7.06327 131.925 7.04612 131.891 7.06327C131.856 7.06327 131.839 7.09757 131.839 7.16618V18.4855C131.839 18.5713 131.805 18.6484 131.736 18.717C131.685 18.7685 131.616 18.7942 131.531 18.7942H128.521C128.435 18.7942 128.358 18.7685 128.289 18.717C128.238 18.6484 128.212 18.5713 128.212 18.4855V1.0949C128.212 1.00915 128.238 0.940543 128.289 0.889091C128.358 0.820489 128.435 0.786188 128.521 0.786188H131.531C131.685 0.786188 131.805 0.85479 131.891 0.991995L135.75 6.9861C135.801 7.089 135.853 7.089 135.904 6.9861L139.789 0.991995Z" fill="#1BA1BE"/>
<path d="M162.963 3.5903C162.963 3.67605 162.929 3.75323 162.861 3.82183C162.809 3.87328 162.741 3.899 162.655 3.899H154.217C154.131 3.899 154.088 3.94188 154.088 4.02763V8.01513C154.088 8.10088 154.131 8.14376 154.217 8.14376H159.748C159.834 8.14376 159.902 8.17806 159.954 8.24666C160.022 8.29811 160.056 8.36671 160.056 8.45246V10.9479C160.056 11.0336 160.022 11.1108 159.954 11.1794C159.902 11.2308 159.834 11.2566 159.748 11.2566H154.217C154.131 11.2566 154.088 11.2994 154.088 11.3852V15.5528C154.088 15.6385 154.131 15.6814 154.217 15.6814H162.655C162.741 15.6814 162.809 15.7157 162.861 15.7843C162.929 15.8358 162.963 15.9044 162.963 15.9901V18.4855C162.963 18.5713 162.929 18.6484 162.861 18.717C162.809 18.7685 162.741 18.7942 162.655 18.7942H150.769C150.684 18.7942 150.607 18.7685 150.538 18.717C150.486 18.6484 150.461 18.5713 150.461 18.4855V1.0949C150.461 1.00915 150.486 0.940543 150.538 0.889091C150.607 0.820489 150.684 0.786188 150.769 0.786188H162.655C162.741 0.786188 162.809 0.820489 162.861 0.889091C162.929 0.940543 162.963 1.00915 162.963 1.0949V3.5903Z" fill="#1BA1BE"/>
<path d="M179.685 1.0949C179.685 1.00915 179.711 0.940543 179.762 0.889091C179.831 0.820489 179.908 0.786188 179.994 0.786188H183.003C183.089 0.786188 183.158 0.820489 183.209 0.889091C183.278 0.940543 183.312 1.00915 183.312 1.0949V18.4855C183.312 18.5713 183.278 18.6484 183.209 18.717C183.158 18.7685 183.089 18.7942 183.003 18.7942H180.096C179.925 18.7942 179.805 18.7256 179.736 18.5884L173.073 7.57779C173.039 7.52634 173.005 7.50919 172.97 7.52634C172.936 7.52634 172.919 7.56064 172.919 7.62924L172.97 18.4855C172.97 18.5713 172.936 18.6484 172.867 18.717C172.816 18.7685 172.747 18.7942 172.662 18.7942H169.652C169.566 18.7942 169.489 18.7685 169.42 18.717C169.369 18.6484 169.343 18.5713 169.343 18.4855V1.0949C169.343 1.00915 169.369 0.940543 169.42 0.889091C169.489 0.820489 169.566 0.786188 169.652 0.786188H172.559C172.73 0.786188 172.85 0.85479 172.919 0.991995L179.556 11.9512C179.59 12.0026 179.625 12.0283 179.659 12.0283C179.693 12.0112 179.711 11.9683 179.711 11.8997L179.685 1.0949Z" fill="#1BA1BE"/>
<path d="M202.736 0.786188C202.822 0.786188 202.89 0.820489 202.942 0.889091C203.01 0.940543 203.045 1.00915 203.045 1.0949V3.61602C203.045 3.70177 203.01 3.77895 202.942 3.84755C202.89 3.89901 202.822 3.92473 202.736 3.92473H198.131C198.045 3.92473 198.003 3.96761 198.003 4.05336V18.4855C198.003 18.5713 197.968 18.6484 197.9 18.717C197.848 18.7685 197.78 18.7942 197.694 18.7942H194.684C194.598 18.7942 194.521 18.7685 194.452 18.717C194.401 18.6484 194.375 18.5713 194.375 18.4855V4.05336C194.375 3.96761 194.332 3.92473 194.247 3.92473H189.77C189.685 3.92473 189.607 3.89901 189.539 3.84755C189.487 3.77895 189.462 3.70177 189.462 3.61602V1.0949C189.462 1.00915 189.487 0.940543 189.539 0.889091C189.607 0.820489 189.685 0.786188 189.77 0.786188H202.736Z" fill="#1BA1BE"/>
<path d="M230.653 0.786188C230.738 0.786188 230.807 0.820489 230.858 0.889091C230.927 0.940543 230.961 1.00915 230.961 1.0949V3.61602C230.961 3.70177 230.927 3.77895 230.858 3.84755C230.807 3.89901 230.738 3.92473 230.653 3.92473H226.048C225.962 3.92473 225.919 3.96761 225.919 4.05336V18.4855C225.919 18.5713 225.885 18.6484 225.816 18.717C225.765 18.7685 225.696 18.7942 225.61 18.7942H222.6C222.515 18.7942 222.437 18.7685 222.369 18.717C222.317 18.6484 222.292 18.5713 222.292 18.4855V4.05336C222.292 3.96761 222.249 3.92473 222.163 3.92473H217.687C217.601 3.92473 217.524 3.89901 217.455 3.84755C217.404 3.77895 217.378 3.70177 217.378 3.61602V1.0949C217.378 1.00915 217.404 0.940543 217.455 0.889091C217.524 0.820489 217.601 0.786188 217.687 0.786188H230.653Z" fill="#1BA1BE"/>
<path d="M246.924 18.7942C246.753 18.7942 246.641 18.7085 246.59 18.537L245.818 16.0158C245.784 15.9472 245.741 15.9129 245.689 15.9129H239.361C239.309 15.9129 239.267 15.9472 239.232 16.0158L238.486 18.537C238.435 18.7085 238.323 18.7942 238.152 18.7942H234.885C234.782 18.7942 234.705 18.7685 234.653 18.717C234.602 18.6484 234.593 18.5541 234.627 18.4341L240.184 1.04345C240.236 0.871941 240.347 0.786188 240.519 0.786188H244.558C244.729 0.786188 244.841 0.871941 244.892 1.04345L250.449 18.4341C250.466 18.4684 250.474 18.5112 250.474 18.5627C250.474 18.717 250.38 18.7942 250.191 18.7942H246.924ZM240.158 12.9545C240.141 13.0574 240.176 13.1088 240.261 13.1088H244.789C244.892 13.1088 244.926 13.0574 244.892 12.9545L242.577 5.31392C242.559 5.24532 242.534 5.21959 242.499 5.23674C242.465 5.23674 242.439 5.26247 242.422 5.31392L240.158 12.9545Z" fill="#1BA1BE"/>
<path d="M261.638 19C260.266 19 259.066 18.7856 258.037 18.3569C257.008 17.911 256.21 17.285 255.644 16.4789C255.095 15.6557 254.821 14.7038 254.821 13.6233V13.0574C254.821 12.9716 254.847 12.903 254.898 12.8516C254.967 12.783 255.044 12.7487 255.13 12.7487H258.062C258.148 12.7487 258.217 12.783 258.268 12.8516C258.337 12.903 258.371 12.9716 258.371 13.0574V13.4433C258.371 14.1293 258.688 14.7124 259.323 15.1926C259.957 15.6557 260.815 15.8872 261.896 15.8872C262.804 15.8872 263.482 15.6986 263.928 15.3212C264.374 14.9268 264.597 14.4466 264.597 13.8806C264.597 13.469 264.46 13.126 264.185 12.8516C263.911 12.56 263.533 12.3113 263.053 12.1055C262.59 11.8826 261.844 11.5824 260.815 11.2051C259.666 10.8107 258.688 10.4076 257.882 9.99601C257.093 9.5844 256.424 9.02701 255.876 8.32384C255.344 7.60352 255.078 6.72026 255.078 5.67408C255.078 4.64505 255.344 3.74465 255.876 2.97288C256.407 2.20111 257.145 1.60941 258.088 1.1978C259.031 0.786189 260.12 0.580383 261.355 0.580383C262.659 0.580383 263.816 0.811915 264.828 1.27498C265.857 1.73804 266.655 2.38976 267.221 3.23014C267.804 4.05336 268.095 5.01379 268.095 6.11142V6.49731C268.095 6.58306 268.061 6.66024 267.993 6.72884C267.941 6.78029 267.872 6.80602 267.787 6.80602H264.828C264.742 6.80602 264.665 6.78029 264.597 6.72884C264.545 6.66024 264.52 6.58306 264.52 6.49731V6.2915C264.52 5.57118 264.219 4.96234 263.619 4.46497C263.036 3.95046 262.23 3.6932 261.201 3.6932C260.395 3.6932 259.76 3.8647 259.297 4.20771C258.851 4.55072 258.628 5.02236 258.628 5.62263C258.628 6.05139 258.757 6.41155 259.014 6.70311C259.289 6.99467 259.683 7.2605 260.198 7.50061C260.729 7.72357 261.544 8.03228 262.642 8.42674C263.859 8.87265 264.811 9.26711 265.497 9.61012C266.2 9.95313 266.826 10.4677 267.375 11.1537C267.941 11.8225 268.224 12.6972 268.224 13.7777C268.224 15.3898 267.632 16.6676 266.449 17.6108C265.266 18.537 263.662 19 261.638 19Z" fill="#1BA1BE"/>
<path d="M274.931 18.7942C274.846 18.7942 274.768 18.7685 274.7 18.717C274.648 18.6484 274.623 18.5713 274.623 18.4855V1.0949C274.623 1.00915 274.648 0.940543 274.7 0.889091C274.768 0.820489 274.846 0.786188 274.931 0.786188H277.941C278.027 0.786188 278.096 0.820489 278.147 0.889091C278.216 0.940543 278.25 1.00915 278.25 1.0949V8.29811C278.25 8.34956 278.267 8.38386 278.302 8.40101C278.336 8.40101 278.37 8.38386 278.404 8.34956L284.347 0.966269C284.45 0.846215 284.579 0.786188 284.733 0.786188H288.129C288.266 0.786188 288.352 0.829064 288.386 0.914817C288.42 0.983419 288.403 1.06917 288.335 1.17207L282.598 8.50392C282.546 8.57252 282.538 8.63255 282.572 8.684L288.643 18.4341C288.678 18.537 288.695 18.597 288.695 18.6141C288.695 18.7342 288.609 18.7942 288.437 18.7942H285.042C284.87 18.7942 284.75 18.7256 284.681 18.5884L280.102 11.1794C280.085 11.1451 280.059 11.1279 280.025 11.1279C279.991 11.1279 279.957 11.1451 279.922 11.1794L278.302 13.2117C278.267 13.2803 278.25 13.3318 278.25 13.3661V18.4855C278.25 18.5713 278.216 18.6484 278.147 18.717C278.096 18.7685 278.027 18.7942 277.941 18.7942H274.931Z" fill="#1BA1BE"/>
</svg>
